# This file uses centimeters as units for non-parametric coordinates.

mtllib basic_plane.mtl
g default
v -12.007520 0.412333 12.007520
v 12.007520 0.412333 12.007520
v -12.007520 0.412333 -12.007520
v 12.007520 0.412333 -12.007520
vt 0.000000 0.000000
vt 1.000000 0.000000
vt 0.000000 1.000000
vt 1.000000 1.000000
vn 0.000000 1.000000 0.000000
vn 0.000000 1.000000 0.000000
vn 0.000000 1.000000 0.000000
vn 0.000000 1.000000 0.000000
s off
g pPlane1
usemtl initialShadingGroup
f 1/1/1 2/2/2 4/4/3 3/3/4
