# This file uses centimeters as units for non-parametric coordinates.

mtllib ceiling_light.mtl
g default
v -15.097500 11.963394 80.462067
v 13.067253 11.963394 80.462067
v -15.097500 11.963394 -80.818825
v 13.067253 11.963394 -80.818825
v -15.097500 16.939789 80.462067
v 13.067253 16.939789 80.462067
v 13.067253 16.939789 -80.818825
v -15.097500 16.939789 -80.818825
v -15.097500 16.939789 80.462067
v 13.067253 16.939789 80.462067
v -15.097500 16.939789 -80.818825
v 13.067253 16.939789 -80.818825
v -19.227951 16.939789 87.787109
v 17.197706 16.939789 87.787109
v 17.197706 16.939789 -88.143875
v -19.227951 16.939789 -88.143875
v -19.227951 20.404327 87.787109
v 17.197706 20.404327 87.787109
v 17.197706 20.404327 -88.143875
v -19.227951 20.404327 -88.143875
v 3.507549 11.963394 -72.308914
v -5.537798 11.963394 -72.308914
v 3.507549 11.963394 71.952156
v -5.537798 11.963394 71.952156
v 3.507549 14.883965 -72.308914
v -5.537798 14.883965 -72.308914
v 3.507549 14.883965 71.952156
v -5.537798 14.883965 71.952156
vt 0.618369 0.909117
vt 0.618369 0.096707
vt 0.643436 0.096708
vt 0.643436 0.909117
vt 0.476497 0.096708
vt 0.476497 0.909117
vt 0.451429 0.909117
vt 0.451429 0.096708
vt 0.302329 0.907389
vt 0.302329 0.117268
vt 0.317889 0.117268
vt 0.317889 0.907389
vt 0.138739 0.117268
vt 0.138739 0.907389
vt 0.123179 0.907389
vt 0.123179 0.117268
vt 0.843342 0.088291
vt 0.843342 0.905011
vt 0.826808 0.905011
vt 0.826808 0.088291
vt 0.759064 0.905011
vt 0.759064 0.088291
vt 0.775598 0.088291
vt 0.775598 0.905010
vt 0.157289 0.874492
vt 0.283779 0.874492
vt 0.283779 0.150165
vt 0.157289 0.150165
vt 0.570215 0.139574
vt 0.524651 0.139574
vt 0.570215 0.866251
vt 0.524651 0.866251
vt 0.618369 0.934184
vt 0.476497 0.934184
vt 0.476497 0.071640
vt 0.618369 0.071640
vt 0.302329 0.922948
vt 0.138739 0.922949
vt 0.138739 0.101708
vt 0.302329 0.101708
vt 0.775599 0.071756
vt 0.826808 0.071757
vt 0.826807 0.921546
vt 0.775598 0.921545
vn 0.000000 0.000000 1.000000
vn 0.000000 0.000000 1.000000
vn 0.000000 0.000000 1.000000
vn 0.000000 0.000000 1.000000
vn 0.000000 0.000000 -1.000000
vn 0.000000 0.000000 -1.000000
vn 0.000000 0.000000 -1.000000
vn 0.000000 0.000000 -1.000000
vn 0.000000 -1.000000 0.000000
vn 0.000000 -1.000000 0.000000
vn 0.000000 -1.000000 0.000000
vn 0.000000 -1.000000 0.000000
vn 1.000000 0.000000 0.000000
vn 1.000000 0.000000 0.000000
vn 1.000000 0.000000 0.000000
vn 1.000000 0.000000 0.000000
vn -1.000000 0.000000 0.000000
vn -1.000000 0.000000 0.000000
vn -1.000000 0.000000 0.000000
vn -1.000000 0.000000 0.000000
vn 0.000000 -1.000000 -0.000000
vn 0.000000 -1.000000 -0.000000
vn 0.000000 -1.000000 -0.000000
vn 0.000000 -1.000000 -0.000000
vn 0.000000 -1.000000 0.000000
vn 0.000000 -1.000000 0.000000
vn 0.000000 -1.000000 0.000000
vn 0.000000 -1.000000 0.000000
vn 0.000000 -1.000000 0.000000
vn 0.000000 -1.000000 0.000000
vn 0.000000 -1.000000 0.000000
vn 0.000000 -1.000000 0.000000
vn 0.000000 -1.000000 0.000000
vn 0.000000 -1.000000 0.000000
vn 0.000000 -1.000000 0.000000
vn 0.000000 -1.000000 0.000000
vn 0.000000 0.000000 1.000000
vn 0.000000 0.000000 1.000000
vn 0.000000 0.000000 1.000000
vn 0.000000 0.000000 1.000000
vn 1.000000 0.000000 0.000000
vn 1.000000 0.000000 0.000000
vn 1.000000 0.000000 0.000000
vn 1.000000 0.000000 0.000000
vn 0.000000 0.000000 -1.000000
vn 0.000000 0.000000 -1.000000
vn 0.000000 0.000000 -1.000000
vn 0.000000 0.000000 -1.000000
vn -1.000000 0.000000 0.000000
vn -1.000000 0.000000 0.000000
vn -1.000000 0.000000 0.000000
vn -1.000000 0.000000 0.000000
vn 0.000000 -1.000000 0.000000
vn 0.000000 -1.000000 0.000000
vn 0.000000 -1.000000 0.000000
vn 0.000000 -1.000000 0.000000
vn 0.000000 -1.000000 0.000000
vn 0.000000 -1.000000 0.000000
vn 0.000000 -1.000000 0.000000
vn 0.000000 -1.000000 0.000000
vn 0.000000 -1.000000 0.000000
vn 0.000000 -1.000000 0.000000
vn 0.000000 -1.000000 0.000000
vn 0.000000 -1.000000 0.000000
vn 0.000000 -1.000000 0.000000
vn 0.000000 -1.000000 0.000000
vn 0.000000 -1.000000 0.000000
vn 0.000000 -1.000000 0.000000
vn 0.000000 0.000000 1.000000
vn 0.000000 0.000000 1.000000
vn 0.000000 -1.000000 0.000000
vn 0.000000 -1.000000 0.000000
vn -1.000000 0.000000 0.000000
vn -1.000000 0.000000 0.000000
vn 0.000000 -1.000000 0.000000
vn 0.000000 -1.000000 0.000000
vn 0.000000 0.000000 -1.000000
vn 0.000000 0.000000 -1.000000
vn 0.000000 -1.000000 0.000000
vn 0.000000 -1.000000 0.000000
vn 1.000000 0.000000 0.000000
vn 1.000000 0.000000 0.000000
vn 0.000000 -1.000000 0.000000
vn 0.000000 -1.000000 0.000000
s off
g large_light
usemtl polySurface7SG
f 1/6/1 2/1/2 6/33/3 5/34/4
f 8/35/5 7/36/6 4/2/7 3/5/8
f 26/23/9 25/20/10 27/19/11 28/24/12
f 2/1/13 4/2/14 7/3/15 6/4/16
f 3/5/17 1/6/18 5/7/19 8/8/20
f 9/25/21 10/26/22 14/9/23 13/14/24
f 10/26/25 12/27/26 15/10/27 14/9/28
f 12/27/29 11/28/30 16/13/31 15/10/32
f 11/28/33 9/25/34 13/14/35 16/13/36
f 13/14/37 14/9/38 18/37/39 17/38/40
f 14/9/41 15/10/42 19/11/43 18/12/44
f 15/10/45 16/13/46 20/39/47 19/40/48
f 16/13/49 13/14/50 17/15/51 20/16/52
f 3/5/53 4/2/54 21/29/55 22/30/56
f 4/2/57 2/1/58 23/31/59 21/29/60
f 2/1/61 1/6/62 24/32/63 23/31/64
f 1/6/65 3/5/66 22/30/67 24/32/68
f 22/41/69 21/42/70 25/20/71 26/23/72
f 21/17/73 23/18/74 27/19/75 25/20/76
f 23/43/77 24/44/78 28/24/79 27/19/80
f 24/21/81 22/22/82 26/23/83 28/24/84
