# This file uses centimeters as units for non-parametric coordinates.

mtllib screwdriver.mtl
g default
v -0.106097 3.258212 -0.585528
v -17.655010 3.348552 -0.924020
v -0.106097 4.429267 -0.585528
v -17.655010 4.338927 -0.924020
v -0.106097 4.429267 0.585527
v -17.655010 4.338927 0.924020
v -0.106097 3.258212 0.585527
v -17.655010 3.348552 0.924020
v -20.428028 3.637633 0.585527
v -20.428028 3.637633 -0.585528
v -20.428028 3.793380 0.585527
v -20.428028 3.793380 -0.585528
v -16.028915 3.313108 -0.530632
v -16.028915 3.313108 0.530631
v -16.028915 4.374371 0.530631
v -16.028915 4.374371 -0.530632
v 4.842113 1.686791 1.559155
v 4.842113 3.013088 2.522766
v 4.842113 4.652481 2.522766
v 4.842113 5.978777 1.559155
v 4.842113 6.485377 -0.000000
v 4.842113 5.978777 -1.559156
v 4.842113 4.652481 -2.522767
v 4.842113 3.013088 -2.522766
v 4.842113 1.686791 -1.559155
v 4.842113 1.180191 -0.000000
v -0.463073 3.832784 -0.000000
v 0.463351 1.686791 1.559155
v 0.463351 3.013088 2.522766
v 0.463351 4.652481 2.522766
v 0.463351 5.978777 1.559155
v 0.463351 6.485377 -0.000000
v 0.463351 5.978777 -1.559156
v 0.463351 4.652480 -2.522767
v 0.463351 3.013088 -2.522767
v 0.463351 1.686791 -1.559155
v 0.463351 1.180191 -0.000000
v 1.726913 2.183822 1.198041
v 1.726913 3.202937 1.938472
v 1.726913 4.462632 1.938472
v 1.726913 5.481747 1.198041
v 1.726913 5.871014 -0.000000
v 1.726913 5.481747 -1.198042
v 1.726913 4.462631 -1.938472
v 1.726913 3.202936 -1.938472
v 1.726913 2.183822 -1.198041
v 1.726913 1.794554 -0.000000
v -0.463073 1.844388 1.444654
v -0.277806 1.686791 1.559155
v -0.463073 3.073284 2.337500
v -0.277806 3.013088 2.522766
v -0.463073 4.592284 2.337500
v -0.277806 4.652481 2.522766
v -0.463073 5.821180 1.444654
v -0.277806 5.978777 1.559155
v -0.463073 6.290577 -0.000000
v -0.277806 6.485377 -0.000000
v -0.463073 5.821180 -1.444655
v -0.277806 5.978777 -1.559156
v -0.463073 4.592284 -2.337500
v -0.277806 4.652481 -2.522767
v -0.463073 3.073284 -2.337500
v -0.277806 3.013088 -2.522766
v -0.463073 1.844388 -1.444654
v -0.277806 1.686791 -1.559155
v -0.463073 1.374991 -0.000000
v -0.277806 1.180191 -0.000000
v 4.842113 1.239205 1.884346
v 4.842113 2.842125 3.048935
v 4.842113 4.823443 3.048935
v 4.842113 6.426363 1.884345
v 4.842113 7.038624 -0.000000
v 4.842113 6.426363 -1.884346
v 4.842113 4.823442 -3.048935
v 4.842113 2.842125 -3.048935
v 4.842113 1.239205 -1.884345
v 4.842113 0.626944 -0.000000
v 16.376499 1.239205 1.884346
v 16.958736 1.734485 1.524504
v 16.376499 2.842125 3.048935
v 16.958736 3.031305 2.466698
v 16.376499 4.823443 3.048935
v 16.958736 4.634263 2.466698
v 16.376499 6.426363 1.884345
v 16.958736 5.931083 1.524503
v 16.376499 7.038624 -0.000000
v 16.958736 6.426425 -0.000000
v 16.376499 6.426363 -1.884346
v 16.958736 5.931083 -1.524504
v 16.376499 4.823442 -3.048935
v 16.958736 4.634263 -2.466699
v 16.376499 2.842125 -3.048935
v 16.958736 3.031305 -2.466699
v 16.376499 1.239205 -1.884345
v 16.958736 1.734486 -1.524503
v 16.376499 0.626944 -0.000000
v 16.958736 1.239144 -0.000000
vt 0.433866 0.672287
vt 0.373457 0.672287
vt 0.373455 0.320611
vt 0.433865 0.320610
vt 0.313048 0.672287
vt 0.313046 0.320611
vt 0.494275 0.672287
vt 0.494274 0.320610
vt 0.554685 0.672286
vt 0.554683 0.320610
vt 0.131820 0.672288
vt 0.071411 0.672288
vt 0.071409 0.320612
vt 0.131819 0.320612
vt 0.011002 0.672289
vt 0.011000 0.320612
vt 0.192229 0.672288
vt 0.192228 0.320611
vt 0.252639 0.672288
vt 0.252637 0.320611
vt 0.615094 0.672286
vt 0.615092 0.320609
vt 0.088417 0.740259
vt 0.071303 0.716704
vt 0.160922 0.687584
vt 0.160922 0.716701
vt 0.043606 0.801936
vt 0.015915 0.792938
vt 0.250541 0.716704
vt 0.233427 0.740259
vt 0.043606 0.878172
vt 0.015915 0.887170
vt 0.305929 0.792938
vt 0.278238 0.801936
vt 0.088417 0.939849
vt 0.071303 0.963404
vt 0.305929 0.887169
vt 0.278238 0.878172
vt 0.160922 0.963407
vt 0.160922 0.992523
vt 0.250541 0.963404
vt 0.233427 0.939849
vt 0.214115 0.913818
vt 0.160522 0.931232
vt 0.160522 0.748876
vt 0.214115 0.766289
vt 0.106929 0.913818
vt 0.106929 0.766289
vt 0.247237 0.868229
vt 0.247237 0.811878
vt 0.073806 0.811878
vt 0.073806 0.868229
vt 0.740964 0.534159
vt 0.751130 0.585256
vt 0.651165 0.598994
vt 0.643354 0.559731
vt 0.755125 0.637201
vt 0.654234 0.638908
vt 0.724771 0.484642
vt 0.630911 0.521682
vt 0.752890 0.689251
vt 0.652517 0.678903
vt 0.729949 0.790700
vt 0.709572 0.838647
vt 0.619232 0.793698
vt 0.634890 0.756855
vt 0.683617 0.883820
vt 0.599288 0.828408
vt 0.744458 0.740662
vt 0.646038 0.718407
vt 0.652455 0.925571
vt 0.575344 0.860489
vt 0.616532 0.963304
vt 0.547741 0.889483
vt 0.516670 0.806533
vt 0.485284 0.763334
vt 0.495876 0.748756
vt 0.533807 0.800965
vt 0.434501 0.746834
vt 0.434501 0.728814
vt 0.516670 0.859930
vt 0.533807 0.865498
vt 0.383717 0.763334
vt 0.373125 0.748756
vt 0.485284 0.903129
vt 0.495875 0.917707
vt 0.352331 0.806533
vt 0.335194 0.800965
vt 0.434501 0.919629
vt 0.434501 0.937649
vt 0.352331 0.859930
vt 0.335194 0.865498
vt 0.383717 0.903129
vt 0.373125 0.917707
vt 0.671296 0.318097
vt 0.669647 0.279600
vt 0.710729 0.273909
vt 0.712629 0.320424
vt 0.660690 0.242056
vt 0.699935 0.228616
vt 0.732430 0.270894
vt 0.734465 0.321606
vt 0.665557 0.356058
vt 0.705590 0.366529
vt 0.644752 0.206916
vt 0.680694 0.186251
vt 0.720653 0.221504
vt 0.726852 0.371570
vt 0.699659 0.175324
vt 0.594450 0.148812
vt 0.562045 0.127969
vt 0.580909 0.091134
vt 0.620079 0.116223
vt 0.526368 0.113765
vt 0.537600 0.073891
vt 0.590890 0.071695
vt 0.633583 0.099007
vt 0.622387 0.175463
vt 0.653749 0.148325
vt 0.488787 0.107077
vt 0.490490 0.064507
vt 0.543979 0.053062
vt 0.670290 0.133976
vt 0.495274 0.042594
vt 0.652317 0.391768
vt 0.689747 0.411883
vt 0.711126 0.418949
vt 0.347397 0.047967
vt 0.396945 0.116164
vt 0.267227 0.158312
vt 0.353751 0.039222
vt 0.407226 0.112824
vt 0.396945 0.200460
vt 0.267227 0.021918
vt 0.267227 0.011108
vt 0.407226 0.203801
vt 0.347397 0.268657
vt 0.187056 0.047967
vt 0.180702 0.039222
vt 0.353751 0.277403
vt 0.267227 0.294706
vt 0.137508 0.116164
vt 0.127227 0.112824
vt 0.267227 0.305517
vt 0.187056 0.268657
vt 0.137508 0.200460
vt 0.127227 0.203801
vt 0.180702 0.277403
vt 0.882257 0.939535
vt 0.828058 0.944522
vt 0.827022 0.937786
vt 0.882285 0.932703
vt 0.821507 0.736576
vt 0.869718 0.736865
vt 0.876272 0.807217
vt 0.805315 0.809616
vt 0.874071 0.037545
vt 0.822544 0.037400
vt 0.918273 0.737374
vt 0.966056 0.737741
vt 0.990686 0.817392
vt 0.913514 0.809569
vt 0.977161 0.038689
vt 0.925610 0.037972
vt 0.943853 0.945237
vt 0.889470 0.933113
vt 0.774083 0.735862
vt 0.763150 0.815006
vt 0.771024 0.037538
vt 0.820437 0.939769
vn 0.017302 0.000000 -0.999850
vn 0.017302 0.000000 -0.999850
vn 0.235139 0.000000 -0.971962
vn 0.235139 0.000000 -0.971962
vn -0.005881 0.999983 0.000000
vn -0.005881 0.999983 0.000000
vn -0.021792 0.999763 0.000000
vn -0.021792 0.999763 0.000000
vn 0.017302 0.000000 0.999850
vn 0.017302 0.000000 0.999850
vn 0.235139 0.000000 0.971962
vn 0.235139 0.000000 0.971962
vn -0.005881 -0.999983 0.000000
vn -0.005881 -0.999983 0.000000
vn -0.021792 -0.999763 0.000000
vn -0.021792 -0.999763 0.000000
vn -1.000000 0.000000 0.000000
vn -1.000000 0.000000 0.000000
vn -1.000000 0.000000 0.000000
vn -1.000000 0.000000 0.000000
vn 1.000000 0.000000 0.000000
vn 1.000000 0.000000 0.000000
vn 1.000000 0.000000 0.000000
vn 1.000000 0.000000 0.000000
vn -0.103686 -0.994610 0.000000
vn -0.103686 -0.994610 0.000000
vn -0.103686 -0.994610 0.000000
vn -0.103686 -0.994610 0.000000
vn -0.121167 0.000000 0.992632
vn -0.121167 0.000000 0.992632
vn -0.121167 0.000000 0.992632
vn -0.121167 0.000000 0.992632
vn -0.193034 0.981192 0.000000
vn -0.193034 0.981192 0.000000
vn -0.193034 0.981192 0.000000
vn -0.193034 0.981192 0.000000
vn -0.121167 0.000000 -0.992632
vn -0.121167 0.000000 -0.992632
vn -0.121167 0.000000 -0.992632
vn -0.121167 0.000000 -0.992632
vn -0.003448 -0.999994 0.000000
vn -0.005881 -0.999983 0.000000
vn -0.005881 -0.999983 0.000000
vn -0.003448 -0.999994 0.000000
vn -0.003448 0.000000 0.999994
vn 0.017302 0.000000 0.999850
vn 0.017302 0.000000 0.999850
vn -0.003448 0.000000 0.999994
vn -0.003448 0.999994 0.000000
vn -0.005881 0.999983 0.000000
vn -0.005881 0.999983 0.000000
vn -0.003448 0.999994 0.000000
vn -0.003448 0.000000 -0.999994
vn 0.017302 0.000000 -0.999850
vn 0.017302 0.000000 -0.999850
vn -0.003448 0.000000 -0.999994
vn 0.006114 -0.587774 0.809002
vn 0.006114 -0.587774 0.809002
vn 0.258783 -0.567763 0.781458
vn 0.258782 -0.567763 0.781458
vn 0.006114 0.000000 0.999981
vn 0.006114 0.000000 0.999981
vn 0.258782 0.000000 0.965936
vn 0.258782 0.000000 0.965936
vn 0.006114 0.587775 0.809002
vn 0.006114 0.587775 0.809002
vn 0.258782 0.567763 0.781458
vn 0.258782 0.567763 0.781458
vn 0.006114 0.951039 0.309012
vn 0.006114 0.951039 0.309012
vn 0.258782 0.918659 0.298491
vn 0.258782 0.918659 0.298491
vn 0.006114 0.951039 -0.309011
vn 0.006114 0.951039 -0.309011
vn 0.258782 0.918659 -0.298491
vn 0.258782 0.918659 -0.298491
vn 0.006114 0.587774 -0.809002
vn 0.006114 0.587774 -0.809002
vn 0.258783 0.567763 -0.781458
vn 0.258783 0.567763 -0.781458
vn 0.006114 -0.000000 -0.999981
vn 0.006114 -0.000000 -0.999981
vn 0.258782 -0.000000 -0.965936
vn 0.258782 -0.000000 -0.965936
vn 0.006114 -0.587775 -0.809002
vn 0.006114 -0.587775 -0.809002
vn 0.258782 -0.567763 -0.781458
vn 0.258782 -0.567763 -0.781458
vn 0.006114 -0.951039 -0.309011
vn 0.006114 -0.951039 -0.309011
vn 0.258782 -0.918659 -0.298491
vn 0.258782 -0.918659 -0.298491
vn 0.006114 -0.951039 0.309011
vn 0.006114 -0.951039 0.309011
vn 0.258782 -0.918660 0.298490
vn 0.258782 -0.918660 0.298490
vn -0.184348 -0.577711 0.795151
vn -0.184348 -0.577711 0.795151
vn 0.006114 -0.587774 0.809002
vn 0.006114 -0.587774 0.809002
vn -0.184348 0.000000 0.982861
vn -0.184348 0.000000 0.982861
vn 0.006114 0.000000 0.999981
vn 0.006114 0.000000 0.999981
vn -0.184348 0.577711 0.795151
vn -0.184348 0.577712 0.795151
vn 0.006114 0.587775 0.809002
vn 0.006114 0.587775 0.809002
vn -0.184348 0.934756 0.303721
vn -0.184348 0.934756 0.303721
vn 0.006114 0.951039 0.309012
vn 0.006114 0.951039 0.309012
vn -0.184348 0.934756 -0.303721
vn -0.184348 0.934756 -0.303721
vn 0.006114 0.951039 -0.309011
vn 0.006114 0.951039 -0.309011
vn -0.184348 0.577711 -0.795151
vn -0.184348 0.577711 -0.795151
vn 0.006114 0.587774 -0.809002
vn 0.006114 0.587774 -0.809002
vn -0.184348 -0.000000 -0.982861
vn -0.184348 -0.000000 -0.982861
vn 0.006114 -0.000000 -0.999981
vn 0.006114 -0.000000 -0.999981
vn -0.184348 -0.577712 -0.795151
vn -0.184348 -0.577712 -0.795151
vn 0.006114 -0.587775 -0.809002
vn 0.006114 -0.587775 -0.809002
vn -0.184348 -0.934757 -0.303721
vn -0.184348 -0.934757 -0.303721
vn 0.006114 -0.951039 -0.309011
vn 0.006114 -0.951039 -0.309011
vn -0.184348 -0.934757 0.303721
vn -0.184348 -0.934757 0.303721
vn 0.006114 -0.951039 0.309011
vn 0.006114 -0.951039 0.309011
vn -0.724617 -0.557536 0.405073
vn -0.724617 -0.557536 0.405073
vn -0.724617 -0.212960 0.655423
vn -0.724617 -0.212960 0.655423
vn -0.724617 -0.557536 0.405073
vn -0.724617 -0.557536 0.405073
vn -0.724617 -0.689152 -0.000000
vn -0.724617 -0.689152 -0.000000
vn -0.724617 -0.212960 0.655423
vn -0.724617 -0.212960 0.655423
vn -0.724617 0.212960 0.655422
vn -0.724617 0.212960 0.655422
vn -0.724617 0.212960 0.655422
vn -0.724617 0.212960 0.655422
vn -0.724617 0.557535 0.405073
vn -0.724617 0.557535 0.405073
vn -0.724617 0.557535 0.405073
vn -0.724617 0.557535 0.405073
vn -0.724617 0.689152 0.000000
vn -0.724617 0.689152 0.000000
vn -0.724617 0.689152 0.000000
vn -0.724617 0.689152 0.000000
vn -0.724617 0.557535 -0.405073
vn -0.724617 0.557535 -0.405073
vn -0.724617 0.557535 -0.405073
vn -0.724617 0.557535 -0.405073
vn -0.724618 0.212959 -0.655422
vn -0.724618 0.212959 -0.655422
vn -0.724618 0.212959 -0.655422
vn -0.724618 0.212959 -0.655422
vn -0.724617 -0.212960 -0.655422
vn -0.724617 -0.212960 -0.655422
vn -0.724617 -0.212960 -0.655422
vn -0.724617 -0.212960 -0.655422
vn -0.724617 -0.557536 -0.405073
vn -0.724617 -0.557536 -0.405073
vn -0.724617 -0.557536 -0.405073
vn -0.724617 -0.557536 -0.405073
vn -0.724617 -0.689152 -0.000000
vn -0.724617 -0.689152 -0.000000
vn 0.258782 -0.567763 0.781458
vn 0.258783 -0.567763 0.781458
vn 0.000000 -0.587785 0.809017
vn 0.000000 -0.587785 0.809017
vn 0.258782 0.000000 0.965936
vn 0.258782 0.000000 0.965936
vn 0.000000 0.000000 1.000000
vn 0.000000 0.000000 1.000000
vn 0.258782 0.567763 0.781458
vn 0.258782 0.567763 0.781458
vn 0.000000 0.587785 0.809017
vn 0.000000 0.587785 0.809017
vn 0.258782 0.918659 0.298491
vn 0.258782 0.918659 0.298491
vn 0.000000 0.951057 0.309017
vn 0.000000 0.951057 0.309017
vn 0.258782 0.918659 -0.298491
vn 0.258782 0.918659 -0.298491
vn 0.000000 0.951057 -0.309017
vn 0.000000 0.951057 -0.309017
vn 0.258783 0.567763 -0.781458
vn 0.258783 0.567763 -0.781458
vn 0.000000 0.587785 -0.809017
vn 0.000000 0.587785 -0.809017
vn 0.258782 -0.000000 -0.965936
vn 0.258782 -0.000000 -0.965936
vn -0.000000 -0.000000 -1.000000
vn -0.000000 -0.000000 -1.000000
vn 0.258782 -0.567763 -0.781458
vn 0.258782 -0.567763 -0.781458
vn 0.000000 -0.587785 -0.809017
vn 0.000000 -0.587785 -0.809017
vn 0.258782 -0.918659 -0.298491
vn 0.258782 -0.918659 -0.298491
vn 0.000000 -0.951056 -0.309017
vn 0.000000 -0.951056 -0.309017
vn 0.258782 -0.918660 0.298490
vn 0.258782 -0.918660 0.298490
vn 0.000000 -0.951057 0.309017
vn 0.000000 -0.951057 0.309017
vn -1.000000 -0.000000 0.000000
vn -1.000000 -0.000000 0.000000
vn -1.000000 0.000000 0.000000
vn -1.000000 -0.000000 0.000000
vn -1.000000 0.000000 0.000000
vn -1.000000 0.000000 0.000000
vn -1.000000 0.000000 0.000000
vn -1.000000 0.000000 0.000000
vn -1.000000 0.000000 0.000000
vn -1.000000 0.000000 0.000000
vn -1.000000 -0.000000 0.000000
vn -1.000000 0.000000 0.000000
vn -1.000000 -0.000000 0.000000
vn -1.000000 0.000000 0.000000
vn -1.000000 0.000000 0.000000
vn -1.000000 0.000000 0.000000
vn -1.000000 0.000000 0.000000
vn -1.000000 0.000000 0.000000
vn -1.000000 0.000000 0.000000
vn -1.000000 0.000000 0.000000
vn -1.000000 0.000000 0.000000
vn -1.000000 0.000000 0.000000
vn -1.000000 0.000000 0.000000
vn -1.000000 0.000000 0.000000
vn -1.000000 0.000000 0.000000
vn -1.000000 0.000000 0.000000
vn -1.000000 0.000000 0.000000
vn -1.000000 0.000000 0.000000
vn -1.000000 -0.000000 0.000000
vn -1.000000 0.000000 0.000000
vn -1.000000 0.000001 0.000000
vn -1.000000 0.000001 0.000000
vn -1.000000 0.000001 0.000000
vn -1.000000 0.000001 0.000000
vn -1.000000 0.000000 0.000000
vn -1.000000 0.000000 0.000000
vn -1.000000 0.000000 0.000000
vn -1.000000 0.000000 0.000000
vn -1.000000 0.000000 0.000000
vn -1.000000 0.000000 0.000000
vn -1.000000 0.000000 0.000000
vn -1.000000 0.000000 0.000000
vn -1.000000 -0.000000 0.000000
vn -1.000000 -0.000000 0.000000
vn -1.000000 -0.000000 0.000000
vn -1.000000 -0.000000 0.000000
vn -1.000000 0.000000 0.000000
vn -1.000000 0.000000 0.000000
vn -1.000000 0.000000 0.000000
vn -1.000000 0.000000 0.000000
vn -1.000000 -0.000001 0.000000
vn -1.000000 -0.000001 0.000000
vn -1.000000 -0.000001 0.000000
vn -1.000000 -0.000001 0.000000
vn -1.000000 0.000000 0.000000
vn -1.000000 0.000000 0.000000
vn -1.000000 0.000000 0.000000
vn -1.000000 0.000000 0.000000
vn -1.000000 0.000000 0.000000
vn -1.000000 0.000000 0.000000
vn -1.000000 0.000000 0.000000
vn -1.000000 0.000000 0.000000
vn -1.000000 -0.000000 0.000000
vn -1.000000 -0.000000 0.000000
vn -1.000000 -0.000000 0.000000
vn -1.000000 -0.000000 0.000000
vn -1.000000 -0.000000 0.000000
vn -1.000000 -0.000000 0.000000
vn -1.000000 -0.000000 0.000000
vn -1.000000 -0.000000 0.000000
vn 0.724617 -0.557536 0.405074
vn 0.724617 -0.557536 0.405074
vn 0.724617 -0.212960 0.655423
vn 0.724617 -0.212960 0.655423
vn 0.724617 -0.557536 0.405074
vn 0.724617 -0.557536 0.405074
vn 0.724617 -0.689152 -0.000000
vn 0.724617 -0.689152 -0.000000
vn 0.724617 -0.212960 0.655423
vn 0.724617 -0.212960 0.655423
vn 0.724617 0.212960 0.655423
vn 0.724617 0.212960 0.655423
vn 0.724617 0.212960 0.655423
vn 0.724617 0.212960 0.655423
vn 0.724617 0.557536 0.405073
vn 0.724617 0.557536 0.405074
vn 0.724617 0.557536 0.405074
vn 0.724617 0.557536 0.405073
vn 0.724617 0.689152 -0.000000
vn 0.724617 0.689152 -0.000000
vn 0.724617 0.689152 -0.000000
vn 0.724617 0.689152 -0.000000
vn 0.724616 0.557536 -0.405073
vn 0.724616 0.557536 -0.405073
vn 0.724616 0.557536 -0.405073
vn 0.724616 0.557536 -0.405073
vn 0.724617 0.212960 -0.655423
vn 0.724617 0.212960 -0.655423
vn 0.724617 0.212960 -0.655423
vn 0.724617 0.212960 -0.655423
vn 0.724617 -0.212960 -0.655423
vn 0.724617 -0.212960 -0.655423
vn 0.724617 -0.212960 -0.655423
vn 0.724617 -0.212960 -0.655423
vn 0.724616 -0.557536 -0.405073
vn 0.724616 -0.557536 -0.405073
vn 0.724616 -0.557536 -0.405073
vn 0.724616 -0.557536 -0.405073
vn 0.724617 -0.689152 -0.000000
vn 0.724617 -0.689152 -0.000000
vn 0.000000 -0.587785 0.809017
vn 0.000000 -0.587785 0.809017
vn 0.000000 -0.587785 0.809017
vn 0.000000 -0.587785 0.809017
vn 0.000000 0.000000 1.000000
vn 0.000000 0.000000 1.000000
vn 0.000000 0.000000 1.000000
vn 0.000000 0.000000 1.000000
vn 0.000000 0.587785 0.809017
vn 0.000000 0.587785 0.809017
vn 0.000000 0.587785 0.809017
vn 0.000000 0.587785 0.809017
vn 0.000000 0.951057 0.309017
vn 0.000000 0.951057 0.309017
vn 0.000000 0.951057 0.309017
vn 0.000000 0.951057 0.309017
vn 0.000000 0.951057 -0.309017
vn 0.000000 0.951057 -0.309017
vn 0.000000 0.951057 -0.309017
vn 0.000000 0.951057 -0.309017
vn 0.000000 0.587785 -0.809017
vn 0.000000 0.587785 -0.809017
vn 0.000000 0.587785 -0.809017
vn 0.000000 0.587785 -0.809017
vn 0.000000 0.000000 -1.000000
vn 0.000000 0.000000 -1.000000
vn 0.000000 0.000000 -1.000000
vn 0.000000 0.000000 -1.000000
vn 0.000000 -0.587785 -0.809017
vn 0.000000 -0.587785 -0.809017
vn 0.000000 -0.587785 -0.809017
vn 0.000000 -0.587785 -0.809017
vn 0.000000 -0.951057 -0.309017
vn 0.000000 -0.951057 -0.309017
vn 0.000000 -0.951057 -0.309017
vn 0.000000 -0.951057 -0.309017
vn 0.000000 -0.951057 0.309017
vn 0.000000 -0.951057 0.309017
vn 0.000000 -0.951057 0.309017
vn 0.000000 -0.951057 0.309017
vn 1.000000 0.000000 0.000000
vn 1.000000 0.000000 0.000000
vn 1.000000 0.000000 0.000000
vn 1.000000 0.000000 0.000000
vn 1.000000 0.000000 0.000000
vn 1.000000 0.000000 0.000000
vn 1.000000 0.000000 0.000000
vn 1.000000 0.000000 0.000000
vn 1.000000 0.000000 0.000000
vn 1.000000 0.000000 0.000000
vn 1.000000 0.000000 0.000000
vn 1.000000 0.000000 0.000000
vn 1.000000 0.000000 0.000000
vn 1.000000 0.000000 0.000000
vn 1.000000 0.000000 0.000000
vn 1.000000 0.000000 0.000000
s off
g Screwdriver
usemtl ScrewdriverSG
f 16/154/1 13/159/2 2/162/3 4/155/4
f 15/153/5 16/154/6 4/155/7 6/156/8
f 14/167/9 15/153/10 6/156/11 8/168/12
f 13/159/13 14/160/14 8/161/15 2/162/16
f 10/149/17 9/150/18 11/151/19 12/152/20
f 7//21 1//22 3//23 5//24
f 2/162/25 8/161/26 9/165/27 10/166/28
f 8/168/29 6/156/30 11/151/31 9/170/32
f 6/156/33 4/155/34 12/152/35 11/151/36
f 4/155/37 2/162/38 10/166/39 12/152/40
f 7/163/41 14/160/42 13/159/43 1/164/44
f 5/158/45 15/153/46 14/167/47 7/169/48
f 3/157/49 16/154/50 15/153/51 5/158/52
f 1/164/53 13/159/54 16/154/55 3/157/56
f 38/114/57 39/120/58 29/121/59 28/115/60
f 39/125/61 40/103/62 30/104/63 29/126/64
f 40/103/65 41/95/66 31/98/67 30/104/68
f 41/95/69 42/96/70 32/97/71 31/98/72
f 42/96/73 43/99/74 33/100/75 32/97/76
f 43/99/77 44/105/78 34/106/79 33/100/80
f 44/105/81 45/118/82 35/119/83 34/106/84
f 45/118/85 46/110/86 36/113/87 35/119/88
f 46/110/89 47/111/90 37/112/91 36/113/92
f 47/111/93 38/114/94 28/115/95 37/112/96
f 17/67/97 18/71/98 39/72/99 38/68/100
f 18/71/101 19/73/102 40/74/103 39/72/104
f 19/59/105 20/53/106 41/56/107 40/60/108
f 20/53/109 21/54/110 42/55/111 41/56/112
f 21/54/113 22/57/114 43/58/115 42/55/116
f 22/57/117 23/61/118 44/62/119 43/58/120
f 23/61/121 24/69/122 45/70/123 44/62/124
f 24/69/125 25/63/126 46/66/127 45/70/128
f 25/63/129 26/64/130 47/65/131 46/66/132
f 26/64/133 17/67/134 38/68/135 47/65/136
f 48/128/137 49/131/138 51/132/139 50/129/140
f 49/131/141 48/128/142 66/134/143 67/135/144
f 50/129/145 51/132/146 53/136/147 52/133/148
f 52/133/149 53/136/150 55/140/151 54/137/152
f 54/137/153 55/140/154 57/144/155 56/141/156
f 56/141/157 57/144/158 59/148/159 58/145/160
f 58/145/161 59/148/162 61/147/163 60/146/164
f 60/146/165 61/147/166 63/143/167 62/142/168
f 62/142/169 63/143/170 65/139/171 64/138/172
f 64/138/173 65/139/174 67/135/175 66/134/176
f 28/115/177 29/121/178 51/124/179 49/122/180
f 29/126/181 30/104/182 53/108/183 51/127/184
f 30/104/185 31/98/186 55/102/187 53/108/188
f 31/98/189 32/97/190 57/101/191 55/102/192
f 32/97/193 33/100/194 59/107/195 57/101/196
f 33/100/197 34/106/198 61/109/199 59/107/200
f 34/106/201 35/119/202 63/123/203 61/109/204
f 35/119/205 36/113/206 65/117/207 63/123/208
f 36/113/209 37/112/210 67/116/211 65/117/212
f 37/112/213 28/115/214 49/122/215 67/116/216
f 48/128/217 50/129/218 27/130/219
f 50/129/220 52/133/221 27/130/222
f 52/133/223 54/137/224 27/130/225
f 54/137/226 56/141/227 27/130/228
f 56/141/229 58/145/230 27/130/231
f 58/145/232 60/146/233 27/130/234
f 60/146/235 62/142/236 27/130/237
f 62/142/238 64/138/239 27/130/240
f 64/138/241 66/134/242 27/130/243
f 66/134/244 48/128/245 27/130/246
f 18/75/247 17/76/248 68/77/249 69/78/250
f 19/81/251 18/75/252 69/78/253 70/82/254
f 20/85/255 19/81/256 70/82/257 71/86/258
f 21/89/259 20/85/260 71/86/261 72/90/262
f 22/93/263 21/89/264 72/90/265 73/94/266
f 23/91/267 22/93/268 73/94/269 74/92/270
f 24/87/271 23/91/272 74/92/273 75/88/274
f 25/83/275 24/87/276 75/88/277 76/84/278
f 26/79/279 25/83/280 76/84/281 77/80/282
f 17/76/283 26/79/284 77/80/285 68/77/286
f 78/24/287 79/23/288 81/27/289 80/28/290
f 79/23/291 78/24/292 96/25/293 97/26/294
f 80/28/295 81/27/296 83/31/297 82/32/298
f 82/32/299 83/31/300 85/35/301 84/36/302
f 84/36/303 85/35/304 87/39/305 86/40/306
f 86/40/307 87/39/308 89/42/309 88/41/310
f 88/41/311 89/42/312 91/38/313 90/37/314
f 90/37/315 91/38/316 93/34/317 92/33/318
f 92/33/319 93/34/320 95/30/321 94/29/322
f 94/29/323 95/30/324 97/26/325 96/25/326
f 69/19/327 68/17/328 78/18/329 80/20/330
f 70/5/331 69/19/332 80/20/333 82/6/334
f 71/2/335 70/5/336 82/6/337 84/3/338
f 72/1/339 71/2/340 84/3/341 86/4/342
f 73/7/343 72/1/344 86/4/345 88/8/346
f 74/9/347 73/7/348 88/8/349 90/10/350
f 75/21/351 74/9/352 90/10/353 92/22/354
f 76/12/355 75/15/356 92/16/357 94/13/358
f 77/11/359 76/12/360 94/13/361 96/14/362
f 68/17/363 77/11/364 96/14/365 78/18/366
f 89/43/367 87/44/368 97/45/369 95/46/370
f 91/49/371 89/43/372 95/46/373 93/50/374
f 87/44/375 85/47/376 79/48/377 97/45/378
f 81/51/379 79/48/380 85/47/381 83/52/382
